<svg width="129" height="56" viewBox="0 0 129 56" fill="none" xmlns="http://www.w3.org/2000/svg">
<path d="M28.3274 55.8962C43.9722 55.8962 56.6547 43.3834 56.6547 27.9481C56.6547 12.5128 43.9722 0 28.3274 0C12.6826 0 0 12.5128 0 27.9481C0 43.3834 12.6826 55.8962 28.3274 55.8962Z" fill="#FC5D47"/>
<path d="M16.4929 36.2267C17.2964 36.2267 18.0885 36.0996 18.8692 35.8453C19.65 35.5911 20.2829 35.2545 20.768 34.8357H20.8135L20.7908 35.5088V35.9575H24.1108V26.8936H18.2894V30.2365H20.5861V31.4704C19.5704 32.2482 18.4713 32.6371 17.2888 32.6371C15.9851 32.6371 14.8822 32.1958 13.9802 31.3134C13.0782 30.4309 12.6271 29.2493 12.6271 27.7686C12.6271 26.4673 13.0251 25.3867 13.821 24.5267C14.6169 23.6666 15.8183 23.2366 17.4253 23.2366C18.1075 23.2366 18.82 23.3787 19.5628 23.6629C20.3056 23.9471 20.912 24.2986 21.382 24.7174L23.2921 21.7783C21.6549 20.3574 19.5704 19.647 17.0387 19.647C14.5828 19.647 12.5476 20.436 10.933 22.0139C9.3185 23.5919 8.51123 25.555 8.51123 27.9032C8.51123 30.4309 9.29576 32.4501 10.8648 33.9607C12.4339 35.4714 14.3099 36.2267 16.4929 36.2267ZM32.3426 36.2267C33.2522 36.2267 34.158 36.0772 35.06 35.778C35.962 35.4789 36.7238 35.0676 37.3454 34.5441L35.89 31.8294C34.7076 32.6071 33.6312 32.996 32.661 32.996C31.9939 32.996 31.4065 32.8203 30.8986 32.4688C30.3908 32.1173 30.0686 31.605 29.9322 30.932H37.3226C37.3833 30.3935 37.4136 29.9897 37.4136 29.7205C37.4136 28.0752 36.9323 26.7328 35.9696 25.6933C35.007 24.6538 33.6843 24.134 32.0015 24.134C30.152 24.134 28.6739 24.7062 27.5672 25.8504C26.4606 26.9946 25.9072 28.4342 25.9072 30.1692C25.9072 31.8144 26.4833 33.2353 27.6355 34.4319C28.7876 35.6284 30.3567 36.2267 32.3426 36.2267ZM33.5251 28.7109H30.0231C30.2809 27.5592 30.91 26.9833 31.9106 26.9833C32.3957 26.9833 32.786 27.1479 33.0817 27.4769C33.3773 27.806 33.5251 28.2173 33.5251 28.7109ZM45.6227 36.0697C45.744 36.0697 46.1002 36.0472 46.6915 36.0024V32.6371C46.5247 32.652 46.3504 32.6595 46.1684 32.6595C44.7737 32.6595 44.0764 32.1659 44.0764 31.1788V27.634H46.5323V24.6052H44.0764V21.2848H40.2561V24.6052H38.6416V27.634H40.1424V31.6948C40.1424 32.308 40.2333 32.8614 40.4153 33.355C40.5972 33.8486 40.8473 34.2487 41.1657 34.5553C41.484 34.8619 41.8213 35.1199 42.1776 35.3293C42.5339 35.5387 42.9356 35.6958 43.3828 35.8004C43.83 35.9051 44.2242 35.9762 44.5653 36.0136C44.9064 36.051 45.2589 36.0697 45.6227 36.0697Z" fill="white"/>
<path d="M67.2871 36.1945C69.0911 36.1945 70.5048 35.7159 71.5281 34.7586C72.5514 33.8014 73.063 32.6123 73.063 31.1914C73.063 30.3987 72.8849 29.6995 72.5286 29.0937C72.1724 28.4879 71.7289 28.0168 71.1983 27.6803C70.6677 27.3437 70.0917 27.0296 69.4701 26.738C68.8486 26.4463 68.2725 26.207 67.7419 26.02C67.2113 25.8331 66.7679 25.5975 66.4116 25.3133C66.0553 25.0292 65.8772 24.7151 65.8772 24.371C65.8772 24.027 66.0212 23.7503 66.3093 23.5409C66.5973 23.3315 67.0294 23.2268 67.6054 23.2268C68.227 23.2268 68.8637 23.3615 69.5156 23.6307C70.1675 23.8999 70.7284 24.2364 71.1983 24.6403L72.8811 21.432C71.5015 20.2205 69.8036 19.6147 67.7874 19.6147C66.0591 19.6147 64.6455 20.0672 63.5464 20.9721C62.4473 21.877 61.8977 23.0623 61.8977 24.5281C61.8977 25.3208 62.0759 26.02 62.4321 26.6258C62.7884 27.2316 63.2318 27.7064 63.7624 28.0505C64.293 28.3945 64.8691 28.7198 65.4906 29.0264C66.1122 29.333 66.6883 29.5835 67.2189 29.778C67.7495 29.9724 68.1929 30.2155 68.5491 30.5071C68.9054 30.7988 69.0835 31.1166 69.0835 31.4606C69.0835 31.7897 68.9357 32.0589 68.6401 32.2683C68.3445 32.4777 67.9314 32.5824 67.4008 32.5824C66.7337 32.5824 66.044 32.4179 65.3315 32.0888C64.6189 31.7598 64.005 31.3709 63.4895 30.9222L61.3975 33.9061C62.1555 34.6539 63.0537 35.2223 64.0921 35.6112C65.1306 36.0001 66.1956 36.1945 67.2871 36.1945Z" fill="white"/>
<path d="M78.2021 36.1943C78.8843 36.1943 79.54 36.0447 80.1691 35.7456C80.7983 35.4465 81.3023 35.0352 81.6813 34.5117H81.7268L81.6813 35.2296V35.9251H85.2742V28.8131C85.2742 27.3473 84.8081 26.1956 83.8757 25.358C82.9434 24.5204 81.6662 24.1016 80.0441 24.1016C79.1345 24.1016 78.2135 24.2512 77.2812 24.5503C76.3488 24.8495 75.6174 25.201 75.0868 25.6048L76.4512 28.3419C77.573 27.609 78.6493 27.2426 79.6802 27.2426C80.7869 27.2426 81.3402 27.6689 81.3402 28.5214V28.7233H80.9991C80.2108 28.7233 79.4528 28.7869 78.7251 28.914C77.9975 29.0412 77.2963 29.2468 76.6217 29.531C75.9471 29.8152 75.4051 30.2265 74.9958 30.765C74.5865 31.3034 74.3818 31.9391 74.3818 32.672C74.3818 33.6741 74.7381 34.5117 75.4506 35.1847C76.1631 35.8578 77.0803 36.1943 78.2021 36.1943ZM79.3846 33.3001C79.0359 33.3001 78.763 33.2067 78.566 33.0197C78.3689 32.8327 78.2704 32.5972 78.2704 32.313C78.2704 31.8344 78.547 31.4866 79.1004 31.2697C79.6537 31.0529 80.2942 30.9444 81.0219 30.9444H81.3857V31.2585C81.3857 31.7521 81.1886 32.2158 80.7945 32.6495C80.4003 33.0833 79.9304 33.3001 79.3846 33.3001ZM92.0734 36.0373C92.316 36.0373 92.7102 36.0148 93.2559 35.97V32.6047C93.1346 32.6196 92.9755 32.6271 92.7784 32.6271C92.3387 32.6271 92.0469 32.5224 91.9029 32.313C91.7589 32.1036 91.6869 31.7147 91.6869 31.1464V19.8838H87.7529V31.6624C87.7529 32.5897 87.8742 33.36 88.1167 33.9732C88.3593 34.5864 88.7042 35.0352 89.1514 35.3193C89.5986 35.6035 90.0458 35.7942 90.493 35.8914C90.9402 35.9887 91.4671 36.0373 92.0734 36.0373ZM100.897 36.1943C101.806 36.1943 102.712 36.0447 103.614 35.7456C104.516 35.4465 105.278 35.0352 105.899 34.5117L104.444 31.797C103.261 32.5747 102.185 32.9636 101.215 32.9636C100.548 32.9636 99.9604 32.7879 99.4525 32.4364C98.9447 32.0849 98.6225 31.5726 98.4861 30.8996H105.877C105.937 30.3611 105.968 29.9573 105.968 29.6881C105.968 28.0428 105.486 26.7004 104.524 25.6609C103.561 24.6214 102.238 24.1016 100.555 24.1016C98.7059 24.1016 97.2278 24.6737 96.1211 25.8179C95.0145 26.9622 94.4611 28.4018 94.4611 30.1368C94.4611 31.782 95.0372 33.2029 96.1894 34.3995C97.3415 35.596 98.9106 36.1943 100.897 36.1943ZM102.079 28.6785H98.577C98.8348 27.5268 99.4639 26.9509 100.464 26.9509C100.95 26.9509 101.34 27.1155 101.636 27.4445C101.931 27.7736 102.079 28.1849 102.079 28.6785ZM111.903 36.1943C113.373 36.1943 114.544 35.8391 115.416 35.1286C116.288 34.4182 116.723 33.5095 116.723 32.4027C116.723 31.8194 116.587 31.2997 116.314 30.8435C116.041 30.3873 115.704 30.0358 115.302 29.789C114.9 29.5422 114.461 29.3179 113.983 29.116C113.506 28.914 113.066 28.757 112.664 28.6448C112.263 28.5326 111.925 28.398 111.652 28.241C111.38 28.0839 111.243 27.9157 111.243 27.7362C111.243 27.3623 111.607 27.1753 112.335 27.1753C112.835 27.1753 113.369 27.265 113.938 27.4445C114.506 27.624 114.957 27.8484 115.291 28.1176L116.633 25.4253C115.526 24.5429 114.131 24.1016 112.448 24.1016C111.038 24.1016 109.875 24.4232 108.958 25.0664C108.041 25.7095 107.582 26.6069 107.582 27.7586C107.582 28.4616 107.772 29.0673 108.151 29.5759C108.53 30.0844 108.988 30.4696 109.526 30.7313C110.064 30.993 110.599 31.2137 111.129 31.3931C111.66 31.5726 112.115 31.7484 112.494 31.9204C112.873 32.0924 113.062 32.2906 113.062 32.5149C113.062 32.9187 112.706 33.1207 111.994 33.1207C110.811 33.1207 109.75 32.7318 108.81 31.954L107.127 34.4892C108.416 35.626 110.008 36.1943 111.903 36.1943Z" fill="white"/>
<path d="M119.579 35.9251V34.3482H117.981V35.9251H119.579ZM122.386 30.3483V29.0503H120.739V30.3483H122.386ZM122.405 35.9251V30.9733H120.719V35.9251H122.405ZM126.099 36.0405C126.905 36.0405 127.58 35.8017 128.126 35.3242C128.672 34.8466 128.945 34.2265 128.945 33.4637C128.945 32.6944 128.67 32.0679 128.121 31.5839C127.572 31.0999 126.895 30.8579 126.089 30.8579C125.29 30.8579 124.618 31.1015 124.072 31.5887C123.526 32.0759 123.253 32.7009 123.253 33.4637C123.253 34.2265 123.526 34.8482 124.072 35.329C124.618 35.8033 125.293 36.0405 126.099 36.0405ZM126.099 34.6559C125.781 34.6559 125.511 34.547 125.29 34.329C125.069 34.1111 124.959 33.8226 124.959 33.4637C124.959 33.0983 125.069 32.8034 125.29 32.5791C125.511 32.3547 125.781 32.2425 126.099 32.2425C126.417 32.2425 126.687 32.3547 126.908 32.5791C127.129 32.8034 127.239 33.0983 127.239 33.4637C127.239 33.8226 127.129 34.1111 126.908 34.329C126.687 34.547 126.417 34.6559 126.099 34.6559Z" fill="white"/>
</svg>
